/* XPM */
static char *xpm[] = {
"32 32 4 1",
"  c #6b423a",
"! c #ffffff",
"# c #000000",
"$ c #fbf236",
"                                ",
"                                ",
"                                ",
"                                ",
"            !!!!####            ",
"            !!!!####            ",
"          !!!!!!######          ",
"          !!!!!!######          ",
"        !!!!!!!!########        ",
"        !!!!!!!!########        ",
"      !!!!$$$$$$##########      ",
"      !!!!$$$$$$##########      ",
"    !!!!!!$$$$$$############    ",
"    !!!!!!$$$$$$############    ",
"    !!!!!!$$$$$$############    ",
"    !!!!!!$$$$$$############    ",
"    ############$$$$$$!!!!!!    ",
"    ############$$$$$$!!!!!!    ",
"    ############$$$$$$!!!!!!    ",
"    ############$$$$$$!!!!!!    ",
"      ##########$$$$$$!!!!      ",
"      ##########$$$$$$!!!!      ",
"        ########!!!!!!!!        ",
"        ########!!!!!!!!        ",
"          ######!!!!!!          ",
"          ######!!!!!!          ",
"            ####!!!!            ",
"            ####!!!!            ",
"                                ",
"                                ",
"                                ",
"                                "
};