/* XPM */
static char *xpm[] = {
"32 32 4 1",
"  c #060094",
"! c #7c781e",
"# c #eae69b",
"$ c #d6ce35",
"                                ",
"                                ",
"                                ",
"                                ",
"                                ",
"                                ",
"                                ",
"                                ",
"                                ",
"                                ",
"          !!!!!!!!!!!!          ",
"          !!!!!!!!!!!!          ",
"          !!####$$$$!!          ",
"          !!####$$$$!!          ",
"          !!##$$$$$$!!          ",
"          !!##$$$$$$!!          ",
"          !!$$$$$$$$!!          ",
"          !!$$$$$$$$!!          ",
"          !!$$$$$$##!!          ",
"          !!$$$$$$##!!          ",
"          !!!!!!!!!!!!          ",
"          !!!!!!!!!!!!          ",
"                                ",
"                                ",
"                                ",
"                                ",
"                                ",
"                                ",
"                                ",
"                                ",
"                                ",
"                                "
};