/* XPM */
static char *xpm[] = {
"32 32 3 1",
"  c #2d5313",
"! c #060094",
"# c #59a524",
"      !!!!!!!!!!!!!!!!!!!!      ",
"      !!!!!!!!!!!!!!!!!!!!      ",
"    !!!!!!!!!!!!!!!!!!!!!!!!    ",
"    !!!!!!!!!!!!!!!!!!!!!!!!    ",
"  !!!!!!!!!!!!    !!!!!!!!!!!!  ",
"  !!!!!!!!!!!!    !!!!!!!!!!!!  ",
"!!!!!!!!!!!!  ####  !!!!!!!!!!!!",
"!!!!!!!!!!!!  ####  !!!!!!!!!!!!",
"!!!!!!!!!!  ########  !!!!!!!!!!",
"!!!!!!!!!!  ########  !!!!!!!!!!",
"!!!!!!!!  ############  !!!!!!!!",
"!!!!!!!!  ############  !!!!!!!!",
"!!!!!!  ################  !!!!!!",
"!!!!!!  ################  !!!!!!",
"!!!!  ####################  !!!!",
"!!!!  ####################  !!!!",
"!!!!  ####################  !!!!",
"!!!!  ####################  !!!!",
"!!!!!!  ################  !!!!!!",
"!!!!!!  ################  !!!!!!",
"!!!!!!!!  ############  !!!!!!!!",
"!!!!!!!!  ############  !!!!!!!!",
"!!!!!!!!!!  ########  !!!!!!!!!!",
"!!!!!!!!!!  ########  !!!!!!!!!!",
"!!!!!!!!!!!!  ####  !!!!!!!!!!!!",
"!!!!!!!!!!!!  ####  !!!!!!!!!!!!",
"  !!!!!!!!!!!!    !!!!!!!!!!!!  ",
"  !!!!!!!!!!!!    !!!!!!!!!!!!  ",
"    !!!!!!!!!!!!!!!!!!!!!!!!    ",
"    !!!!!!!!!!!!!!!!!!!!!!!!    ",
"      !!!!!!!!!!!!!!!!!!!!      ",
"      !!!!!!!!!!!!!!!!!!!!      "
};