/* XPM */
static char *xpm[] = {
"32 32 4 1",
"  c #060094",
"! c #ffffff",
"# c #000000",
"$ c #fbf236",
"                                ",
"                                ",
"                                ",
"                                ",
"            !!!!####            ",
"            !!!!####            ",
"          !!!!!!######          ",
"          !!!!!!######          ",
"        !!!!!!!!########        ",
"        !!!!!!!!########        ",
"      !!!!$$$$$$##########      ",
"      !!!!$$$$$$##########      ",
"    !!!!!!$$$$$$############    ",
"    !!!!!!$$$$$$############    ",
"    !!!!!!$$$$$$############    ",
"    !!!!!!$$$$$$############    ",
"    ############$$$$$$!!!!!!    ",
"    ############$$$$$$!!!!!!    ",
"    ############$$$$$$!!!!!!    ",
"    ############$$$$$$!!!!!!    ",
"      ##########$$$$$$!!!!      ",
"      ##########$$$$$$!!!!      ",
"        ########!!!!!!!!        ",
"        ########!!!!!!!!        ",
"          ######!!!!!!          ",
"          ######!!!!!!          ",
"            ####!!!!            ",
"            ####!!!!            ",
"                                ",
"                                ",
"                                ",
"                                "
};